<svg width="19" height="17" viewBox="0 0 19 17" fill="none" xmlns="http://www.w3.org/2000/svg">
<path d="M0.334961 9.04076V7.95926C0.334961 7.31327 0.858639 6.78955 1.50467 6.78955H17.4952C18.1412 6.78955 18.665 7.31323 18.665 7.95926V9.04076C18.665 9.68675 18.1413 10.2105 17.4952 10.2105H1.50467C0.858676 10.2104 0.334961 9.68675 0.334961 9.04076Z" fill="black"/>
<path d="M9.49977 4.37893C10.6689 4.37893 11.6167 3.43114 11.6167 2.26197C11.6167 1.09281 10.6689 0.14502 9.49977 0.14502C8.3306 0.14502 7.38281 1.09281 7.38281 2.26197C7.38281 3.43114 8.3306 4.37893 9.49977 4.37893Z" fill="black"/>
<path d="M9.49977 16.855C10.6689 16.855 11.6167 15.9072 11.6167 14.738C11.6167 13.5689 10.6689 12.6211 9.49977 12.6211C8.3306 12.6211 7.38281 13.5689 7.38281 14.738C7.38281 15.9072 8.3306 16.855 9.49977 16.855Z" fill="black"/>
</svg>
