<svg width="25" height="22" viewBox="0 0 25 22" fill="none" xmlns="http://www.w3.org/2000/svg">
<g clip-path="url(#clip0)">
<path d="M12.9332 2.63989L12.7132 3.21717L7.29505 17.3526L4.65505 12.8127L4.40777 12.3199H1.21777V14.0799H3.30777L6.49777 19.7453L6.74505 20.2399H8.06505L8.28505 19.6626L14.1423 4.39989H24.0978V2.63989H12.9332Z" fill="black"/>
<path d="M19.0293 12.8279L20.8066 9.67358H23.8242L20.8164 14.8494L23.9512 20.24H20.9238L19.0391 16.9197L17.1641 20.24H14.127L17.2617 14.8494L14.2637 9.67358H17.291L19.0293 12.8279Z" fill="black"/>
<path d="M6.96484 10.1262H0.910156V8.77856L3.71289 6.2688C4.07747 5.94979 4.33789 5.65356 4.49414 5.38013C4.6569 5.10669 4.73828 4.8951 4.73828 4.74536C4.73828 4.19849 4.42904 3.92505 3.81055 3.92505C3.48503 3.92505 3.22461 4.02596 3.0293 4.22778C2.84049 4.42961 2.74609 4.68351 2.74609 4.9895H0.734375C0.734375 4.23429 1.01107 3.59953 1.56445 3.08521C2.12435 2.57088 2.84375 2.31372 3.72266 2.31372C4.6862 2.31372 5.42839 2.52531 5.94922 2.94849C6.47656 3.36515 6.74023 3.96086 6.74023 4.7356C6.74023 5.19132 6.62305 5.60799 6.38867 5.9856C6.1543 6.3632 5.68555 6.83521 4.98242 7.40161L3.53711 8.52466H6.96484V10.1262Z" fill="black"/>
</g>
<defs>
<clipPath id="clip0">
<rect width="23.3845" height="22" fill="white" transform="translate(0.713379)"/>
</clipPath>
</defs>
</svg>
